<svg xmlns="http://www.w3.org/2000/svg" width="648.05542" height="102.5253" viewBox="0 0 171.46466 27.126486">
  <path d="M10.01707103 13.85771045c1.12517232-4.22713046-.15810955-8.65670909-3.22744355-11.00409305C2.60850674 5.50048929.19754453 10.47717745 1.06840213 15.66216955c.28693971 1.71410754.9085027 3.28934793 1.78354326 4.66966933 3.2692716-.91017592 6.14368746-2.63348587 7.16512564-6.47412843m5.6434248 12.19870023c6.90077392-1.15863468 11.55371316-7.69215798 10.39424326-14.59041982-.96455304-5.74214033-5.64593473-9.9266071-11.16638726-10.50466925-1.11429519-.11711822-2.26540003-.0853291-3.42654464.10875254-1.37613824.23089021-2.65941946.6784492-3.82809199 1.29833918 6.0817818 2.06295398 9.35188968 5.19837617 9.57859844 8.41159828.11126205 1.98348106-.81062623 3.41817959-2.0219633 4.58768926l8.59982395-.60064972c.24343886-.01672582.31956598.26686144.0250973.3513536L3.3028506 20.9994133c2.08805064 2.87608952 5.33055235 4.78929858 8.93193793 5.16574948 1.11429519.1171193 2.26540003.0870021 3.42570728-.1087521M14.96782625.205909c6.75521217.70354586 12.02385864 6.41222277 12.02636859 13.35315023.00250566 7.41692934-6.00900284 13.43262465-13.4267674 13.4351346C6.14965988 26.99670378.13480257 20.98602836.13229284 13.56826166.12978311 6.15049559 6.14045789.13480157 13.55822502.13229184c.47516537 0 .94614822.02593337 1.40960123.07361717" fill="#fff"/>
  <path d="M1.06840213 15.66300477c.28693971 1.71327232.9085027 3.28851271 1.78354326 4.66883411 3.2692716-.91017592 6.14368746-2.63348587 7.16596215-6.47412843 1.12433581-4.22713046-.15894606-8.65670909-3.22911678-11.00409305C2.60850674 5.50048929.19754453 10.47801395 1.06840213 15.66300477m24.98633696-4.19785128C27.214209 18.3642527 22.56126975 24.897776 15.66049582 26.05641068c-1.16030725.1957542-2.3114121.2258714-3.42654464.1087521-3.59971171-.3764509-6.84388665-2.28965996-8.93110057-5.16574948l20.51242098-5.88100855c.29446868-.08532738.21834156-.36808585-.0250973-.3513536l-8.59982395.60064972c1.21133707-1.16950967 2.13322535-2.6042082 2.0219633-4.58768926-.22670876-3.2132221-3.49681664-6.3486443-9.57859844-8.41159828 1.16867253-.61988998 2.45195375-1.06744897 3.82809199-1.29833918C12.6229518.87599252 13.77405664.84420339 14.88835183.9613216c5.52045253.57806215 10.20183422 4.76252892 11.16638726 10.50383188" fill="#c70a0c"/>
  <path d="M96.55907318 18.83105302v-4.41619284h-4.4279052v4.41619284h-2.43020397V8.3121634H92.131168v4.19032294h4.4279052V8.3121634h2.4486088v10.51888962zm0 0M44.17878307 8.3121634v6.58538984c0 .72780665.10707952 1.3577362.31873076 1.86970908.20997437.50779035.51448283.93025333.90515603 1.2548392.39401837.32793102.8700211.56969516 1.4129464.71860208.55212984.15225423 1.17536691.23005393 1.8521416.23005393.67593947 0 1.2933193-.0777997 1.83373678-.23005393.53205244-.14890692.98546567-.38983584 1.349369-.71525692.3630681-.32458373.64833437-.7470467.84743374-1.25567442.2007741-.5103003.30116115-1.14022984.30116115-1.87221902V8.3121634h-2.27376507v6.51511998c0 .66338975-.1648018 1.19962471-.48938767 1.59280786-.33211356.40071084-.85998133.60399488-1.56854793.60399488-.6968521 0-1.22053948-.20244668-1.55850815-.6023223-.33127833-.39234579-.4994253-.92858075-.4994253-1.59448044V8.3121634zm0 0M37.16842182 18.8327256v-8.55632225h-2.85768469V8.3121634h8.16314082v.94196505c0 .5638407-.4575979 1.0222749-1.02143797 1.0222749h-1.85297897v8.55632225zm0 0M76.23320657 8.31132669h2.4310392v10.51888897h-2.4310392zm0 0M68.13782567 13.92547251l.08198437.10456958 3.10530608 4.0012597c.39485573.50946508.99132078.80226117 1.63630784.80226117h1.93579641l-4.44881782-5.65848445-.06525212-.0836548.06525212-.08281959 3.65743378-4.70062367h-2.52975366l-3.35376269 4.53414928-.0844943.10958947-.00085664-.1898991V8.30798044h-2.4310392v10.51972526h2.4310392v-4.71484404zm0 0M57.67582248 13.12655864h1.41713106c.5103003 0 .89930092-.14054187 1.15528737-.41576836.2534765-.2727187.38230815-.6274196.38230815-1.05322774 0-.43668527-.12548435-.79556807-.37226838-1.06828632-.2509687-.27773751-.64247712-.41744287-1.16532714-.41744287h-1.41713106zm4.86124317 5.7028218c-.72027682 0-1.39872623-.38230815-1.77099461-.9980154l-1.89145907-3.12287354h-1.19878949v4.12088894h-2.4293666V8.3121634h4.33170066c1.11262475 0 1.98431843.29028573 2.5899859.86332863.60399702.57136947.91017591 1.35438846.91017591 2.32646898 0 .4935702-.13133945.99383286-.39067106 1.4865657-.25598858.48436778-.70940182.8808961-1.34937114 1.17787472l-.14054187.06525212 2.95137927 4.59772689zm0 0M80.65943704 18.38433011V16.3673867c.77381872.35637563 1.77099675.71191176 2.80163713.71191176 1.18623977 0 1.78772471-.40656594 1.78772471-1.18623977 0-.9151958-.80727892-1.01641808-2.42350936-1.71159974-1.10007502-.49106025-2.14828287-1.25400183-2.14828287-3.01579402 0-2.05040513 1.56436326-3.01663054 3.7302136-3.01663054 1.15110483 0 2.13155276.27104504 2.68117266.47432887v1.96591296c-.5496199-.25431386-1.53006783-.55965776-2.50967625-.55965776-1.06577745 0-1.5643654.38983628-1.5643654 1.06744918 0 .71191177.6023223.93276328 1.68482986 1.33933137 1.39203376.69434215 3.0082642.99968583 3.0082642 3.37216751 0 2.05040577-1.63296268 3.16888348-3.81638049 3.16888348-1.34100394 0-2.40594403-.23758162-3.23162779-.59311989M155.74560528 18.83021566V8.31049018h6.58706306v.95451348c0 .55714823-.45341538 1.00972647-1.0097256 1.00972647h-3.14629827v2.26289115h3.53278894v1.75593708h-3.53278894v2.57325579h4.15602387v1.9634015zm0 0M131.71294551 18.82938044V8.31049018h1.18121988c.6884892 0 1.2489841.56049447 1.2489841 1.24898216v7.37510173h3.87995787v1.89480637zm0 0M116.665763 18.82770571V8.31550964h2.4310392l-.00085664 10.51219607zm0 0M123.75559868 13.12488605h1.41713106c.5103003 0 .89846356-.1397045 1.15528736-.41493314.2534765-.2735539.38230601-.6274196.38230601-1.0540651 0-.43584576-.1254822-.79556656-.3731036-1.0682846-.25013133-.276901-.64247711-.41744288-1.16448977-.41744288h-1.41713106zm4.86124316 5.70281966c-.72027681 0-1.39956359-.382306-1.77183196-.99717803l-1.8906217-3.12287354h-1.1987895v4.12005157h-2.42936661V8.3113267h4.33086545c1.11345782 0 1.98431629.29028594 2.59082111.86332863.60399488.57136968.91017592 1.35438867.91017592 2.32647047 0 .4935702-.13133945.99383072-.39150842 1.48656356-.25515122.48353256-.70940182.88006087-1.34853378 1.17787472l-.14054187.06525212 2.95137927 4.59688952zm0 0M108.3110505 14.99710507l.95451327-2.65858531c.2116491-.59813763.42413555-1.22973976.56551478-1.69486728h.03513494c.12381176.48185763.33629608 1.0799974.54794517 1.69486728l.91937834 2.65858531zm3.00324645-6.6874514h-2.79159735l-3.96695999 10.51972677h1.7509172c.44504818 0 .83739397-.28359369.97626326-.7052193l.4074033-1.23476178h4.2664507l.6240723 1.93998108h2.633488zm0 0M164.285197 18.38433011v-2.01610605c.77297921.35553827 1.77015724.7110744 2.80163499.7110744 1.18623977 0 1.78772685-.40656594 1.78772685-1.18623977 0-.9151958-.80811629-1.01641808-2.4235115-1.71076238-1.10007503-.49189761-2.14912024-1.25400183-2.14912024-3.01663138 0-2.05040513 1.5643654-3.01663054 3.73021574-3.01663054 1.1519422 0 2.13155276.27104504 2.68200789.47432887v1.96591296c-.55045513-.25347736-1.53006569-.55882125-2.50967625-.55882125-1.06577532 0-1.5643654.38983648-1.5643654 1.06745004 0 .7110744.60148708.9319259 1.6839925 1.338494 1.39287112.69434215 3.00826633.99968583 3.00826633 3.37216751 0 2.05040577-1.63296268 3.16888348-3.81554526 3.16888348-1.34100395 0-2.40677926-.23758162-3.23162565-.59311989M144.2437593 8.3121634h1.50664096c.71525907 0 1.38032355.36892236 1.75844703.9762639l2.9338118 4.71317232c.33127834.52368525.71525693 1.2155196.94280091 1.70490727h.05186718c-.03513493-.47265542-.05186718-1.13102743-.05186718-1.60368285V8.3121634h2.12988019v10.51805226h-2.66527779l-3.56792173-5.69027208c-.33211355-.52284788-.68095935-1.14775754-.9260708-1.62041296h-.03429971c.01756104.45592318.05186718.99634066.05186718 1.50245844v5.8082266h-2.12987805zm0 0M139.58747276 18.82770571V8.31550964h2.43020397v10.51219607zm0 0"/>
</svg>
